<?xml version="1.0" encoding="utf-8"?><svg viewBox="0 0 384 512" xmlns="http://www.w3.org/2000/svg" xmlns:xlink="http://www.w3.org/1999/xlink"><style>:root>svg{display:none}:root>svg:target{display:block}</style><svg viewBox="2 7 20 10" fill="none" preserveAspectRatio="xMinYMid" id="burger" xmlns="http://www.w3.org/2000/svg"><path d="M20 9H4v2h16V9zM4 15h16v-2H4v2z" fill="#fff"/><path d="M20 9H4v2h16V9zM4 15h16v-2H4v2z" fill="#fff"/></svg><svg viewBox="2 7 20 10" fill="none" preserveAspectRatio="xMinYMid" id="burger-hover" xmlns="http://www.w3.org/2000/svg"><path d="M20 9H4v2h16V9zM4 15h16v-2H4v2z" fill="#8f8f9b"/><path d="M20 9H4v2h16V9zM4 15h16v-2H4v2z" fill="#8f8f9b"/></svg><svg fill="none" viewBox="0 0 24 24" id="checkbox-active" xmlns="http://www.w3.org/2000/svg"><path d="M19 3H5a2 2 0 00-2 2v14a2 2 0 002 2h14a2 2 0 002-2V5a2 2 0 00-2-2zm-9 14l-5-5 1.41-1.41L10 14.17l7.59-7.59L19 8l-9 9z" fill="#ffb902"/></svg><svg fill="none" viewBox="0 0 24 24" id="checkbox-default" xmlns="http://www.w3.org/2000/svg"><path d="M19 5v14H5V5h14zm0-2H5c-1.1 0-2 .9-2 2v14c0 1.1.9 2 2 2h14c1.1 0 2-.9 2-2V5c0-1.1-.9-2-2-2z" fill="#aaa"/></svg><svg fill="none" viewBox="0 0 24 24" id="checkbox-focus" xmlns="http://www.w3.org/2000/svg"><path d="M19 5v14H5V5h14zm0-2H5c-1.1 0-2 .9-2 2v14c0 1.1.9 2 2 2h14c1.1 0 2-.9 2-2V5c0-1.1-.9-2-2-2z" fill="#fdd805"/></svg><svg fill="none" viewBox="0 0 24 24" id="cross" xmlns="http://www.w3.org/2000/svg"><path d="M19 6.41L17.59 5 12 10.59 6.41 5 5 6.41 10.59 12 5 17.59 6.41 19 12 13.41 17.59 19 19 17.59 13.41 12 19 6.41z" fill="#fff"/><path d="M19 6.41L17.59 5 12 10.59 6.41 5 5 6.41 10.59 12 5 17.59 6.41 19 12 13.41 17.59 19 19 17.59 13.41 12 19 6.41z" fill="#fff"/></svg><svg fill="none" viewBox="0 0 24 24" id="cross-hover" xmlns="http://www.w3.org/2000/svg"><path d="M19 6.41L17.59 5 12 10.59 6.41 5 5 6.41 10.59 12 5 17.59 6.41 19 12 13.41 17.59 19 19 17.59 13.41 12 19 6.41z" fill="#8f8f9b"/><path d="M19 6.41L17.59 5 12 10.59 6.41 5 5 6.41 10.59 12 5 17.59 6.41 19 12 13.41 17.59 19 19 17.59 13.41 12 19 6.41z" fill="#8f8f9b"/></svg><svg aria-hidden="true" data-prefix="fal" data-icon="arrow-alt-to-bottom" viewBox="0 0 384 512" class="hsvg-inline--fa hfa-arrow-alt-to-bottom hfa-w-12 hfa-5x" id="download" xmlns="http://www.w3.org/2000/svg"><path fill="#fff" d="M230.9 64c8.8 0 16 7.2 16 16v144h93.9c7.1 0 10.7 8.6 5.7 13.6L203.3 381.2c-6.3 6.3-16.4 6.3-22.7 0l-143-143.6c-5-5-1.5-13.6 5.7-13.6h93.9V80c0-8.8 7.2-16 16-16h77.7m0-32h-77.7c-26.5 0-48 21.5-48 48v112H43.3c-35.5 0-53.5 43-28.3 68.2l143 143.6c18.8 18.8 49.2 18.8 68 0l143.1-143.5c25.1-25.1 7.3-68.2-28.3-68.2h-61.9V80c0-26.5-21.6-48-48-48zM384 468v-8c0-6.6-5.4-12-12-12H12c-6.6 0-12 5.4-12 12v8c0 6.6 5.4 12 12 12h360c6.6 0 12-5.4 12-12z"/></svg></svg>